<svg xmlns="http://www.w3.org/2000/svg" viewBox="0 0 200 200" role="img" aria-label="Ventilátor">
  <rect width="200" height="200" rx="14" fill="#f4f1ea"/>
  <rect x="46" y="46" width="108" height="108" rx="12" fill="#3a3530" stroke="#211d18" stroke-width="2"/>
  <circle cx="100" cy="100" r="46" fill="#211d18"/>
  <g fill="#b9641b">
    <path d="M100 100c0-26 8-38 20-38 8 10 2 30-20 38z"/>
    <path d="M100 100c22-14 36-13 43-3-2 13-19 24-43 3z" transform="rotate(120 100 100)"/>
    <path d="M100 100c22-14 36-13 43-3-2 13-19 24-43 3z" transform="rotate(240 100 100)"/>
  </g>
  <circle cx="100" cy="100" r="12" fill="#2c2721" stroke="#d9822b" stroke-width="3"/>
  <g fill="#6f665a"><circle cx="58" cy="58" r="4"/><circle cx="142" cy="58" r="4"/><circle cx="58" cy="142" r="4"/><circle cx="142" cy="142" r="4"/></g>
</svg>
